<svg width="120" height="60" viewBox="0 0 120 60" fill="none" xmlns="http://www.w3.org/2000/svg">
<path d="M49.9374 44.8596L44.6051 30.3494H48.4185L52.1026 41.8542L55.819 30.3494H59.3092L53.977 44.8596H49.9374Z" fill="#F89820"/>
<path d="M67.4854 30.3494L72.8177 44.8596H69.0043L65.3202 33.3549L61.6038 44.8596H58.1136L63.4458 30.3494H67.4854Z" fill="#F89820"/>
<path d="M112.406 45.1504C111.21 45.1504 110.176 44.9565 109.206 44.5364C108.269 44.1163 107.461 43.5669 106.815 42.8883C106.169 42.2096 105.651 41.4017 105.296 40.4968C104.94 39.592 104.779 38.6548 104.779 37.653C104.779 36.6511 104.94 35.6816 105.296 34.7768C105.651 33.8719 106.136 33.064 106.815 32.3853C107.461 31.7067 108.269 31.1573 109.206 30.7372C110.143 30.3171 111.21 30.1232 112.406 30.1232C113.601 30.1232 114.635 30.3171 115.573 30.7372C116.51 31.1573 117.285 31.7067 117.964 32.3853C118.61 33.064 119.128 33.8719 119.483 34.7768C119.838 35.6816 120 36.6511 120 37.653C120 38.6548 119.838 39.592 119.483 40.4968C119.128 41.4017 118.643 42.2096 117.996 42.8883C117.35 43.5669 116.542 44.1163 115.605 44.5364C114.668 44.9242 113.601 45.1504 112.406 45.1504ZM108.625 37.6206C108.625 38.267 108.722 38.8487 108.915 39.3657C109.109 39.8828 109.368 40.3352 109.723 40.723C110.079 41.1108 110.467 41.4017 110.919 41.6279C111.372 41.8541 111.889 41.9511 112.406 41.9511C112.955 41.9511 113.44 41.8541 113.892 41.6279C114.345 41.4017 114.765 41.1108 115.088 40.723C115.443 40.3352 115.702 39.8828 115.896 39.3334C116.09 38.784 116.187 38.2023 116.187 37.556C116.187 36.942 116.09 36.3603 115.896 35.8109C115.702 35.2615 115.443 34.8091 115.088 34.4213C114.732 34.0335 114.345 33.7426 113.892 33.5164C113.44 33.2902 112.923 33.1933 112.406 33.1933C111.856 33.1933 111.372 33.2902 110.919 33.5164C110.467 33.7426 110.047 34.0335 109.723 34.4213C109.368 34.8091 109.109 35.2615 108.915 35.8109C108.722 36.4249 108.625 37.0066 108.625 37.6206Z" fill="#F89820"/>
<path d="M74.7243 44.8596V30.3494H78.4731V41.5633H88.3297V44.8596H74.7243Z" fill="#F89820"/>
<path d="M99.1558 30.3494V32.3207V38.3639C99.1558 40.0767 97.7661 41.434 96.0857 41.434C94.3729 41.434 93.0156 40.0444 93.0156 38.3639V32.2884V30.3171H89.2992V38.3316C89.2992 42.0804 92.3369 45.1181 96.0857 45.1181C99.8344 45.1181 102.872 42.0804 102.872 38.3316V30.3494H99.1558Z" fill="#F89820"/>
<path d="M43.6356 34.7122C43.2801 33.8073 42.7954 32.9994 42.149 32.3208C41.5027 31.6421 40.6948 31.0927 39.7576 30.6726C38.8204 30.2525 37.754 30.0586 36.5906 30.0586C35.3949 30.0586 34.3284 30.2525 33.3912 30.6726C32.454 31.0927 31.6461 31.6421 30.9675 32.3208C30.2888 32.9994 29.8041 33.8073 29.4486 34.7445C29.0931 35.6494 28.9315 36.6189 28.9315 37.653C28.9315 38.6548 29.1254 39.592 29.4809 40.4969C29.8364 41.4018 30.3535 42.2097 31.0321 42.8883C31.7108 43.567 32.4864 44.1164 33.4559 44.5042C34.393 44.892 35.4595 45.0859 36.6229 45.0859C38.2387 45.0859 39.6607 44.7304 40.8241 44.0194C41.1472 43.8255 41.4058 43.6316 41.6966 43.4054C42.5692 42.7267 43.1509 41.8542 43.5064 41.0463H42.6015H39.7576H39.7253C39.4021 41.4341 39.0466 41.6926 38.6588 41.8865C38.5942 41.9188 38.5619 41.9511 38.4973 41.9511C37.9802 42.1774 37.4954 42.2743 37.1723 42.3066C37.0753 42.3066 36.9784 42.3389 36.8814 42.3389C36.8168 42.3389 36.7845 42.3389 36.7198 42.3389C36.2674 42.3066 35.8796 42.242 35.5241 42.145C35.4595 42.1127 35.4272 42.1127 35.3625 42.0804H35.3302C34.8778 41.9188 34.49 41.6603 34.1345 41.3694C34.0052 41.2725 33.9083 41.1432 33.8113 41.0463C33.6174 40.8201 33.4235 40.5292 33.262 40.2384C33.0357 39.7859 32.9065 39.3012 32.8418 38.7195H40.4686H44.0557V38.6872C44.0881 38.5579 44.1204 38.364 44.1204 38.1701C44.1204 37.9439 44.1204 37.7177 44.1204 37.4914C44.1527 36.5543 43.9911 35.6171 43.6356 34.7122ZM33.165 34.9061C33.3912 34.4537 33.6498 34.0982 33.9729 33.775C34.2961 33.4518 34.6839 33.2256 35.1363 33.0317C35.5564 32.8701 36.0412 32.7732 36.5259 32.7732C37.5278 32.7732 38.4003 33.0964 39.1113 33.7427C39.8222 34.389 40.21 35.2616 40.307 36.3604H32.7772C32.8418 35.8433 32.9711 35.3585 33.165 34.9061Z" fill="#F89820"/>
<path d="M4.24157 4.23754C-1.41386 9.89296 -1.41386 19.0386 4.24157 24.694C5.43729 25.8897 6.79459 26.8269 8.24884 27.5056L11.9653 23.7568C10.3817 23.3367 8.89517 22.4965 7.63482 21.2684C3.88608 17.5197 3.88608 11.4118 7.66714 7.66311C11.4159 3.88205 17.5237 3.88205 21.2725 7.66311L24.6657 4.26985C19.0426 -1.41789 9.89699 -1.41789 4.24157 4.23754Z" fill="#556F7B"/>
<path d="M27.5096 8.24475L23.7609 11.9612C24.6011 15.1605 23.7932 18.7477 21.2725 21.2684L13.6781 28.8951L11.0604 31.5128C9.18607 33.3871 9.18607 36.4572 11.0604 38.3316L24.6981 24.694C29.1578 20.2342 30.095 13.6093 27.5096 8.24475Z" fill="#556F7B"/>
<path d="M17.8792 11.0564L14.4536 14.4497L11.0604 11.0564L7.66711 14.4497L14.4859 21.2685L17.8792 17.8752L21.2724 14.482L23.7608 11.9936C23.3407 10.4101 22.5005 8.9235 21.2724 7.66315L17.8792 11.0564Z" fill="#F89820"/>
<path d="M14.4782 38.3303L11.0734 41.7352L14.4782 45.14L17.883 41.7352L14.4782 38.3303Z" fill="#F89820"/>
<path d="M32.6479 56.9784C32.454 57.0753 32.2278 57.14 31.9693 57.2369C31.7108 57.3339 31.4199 57.3662 31.0967 57.3662C30.9028 57.3662 30.7089 57.3339 30.5474 57.3016C30.3858 57.2369 30.2242 57.1723 30.0949 57.0753C29.9657 56.9784 29.8687 56.8168 29.7718 56.6552C29.7071 56.4936 29.6425 56.2674 29.6425 56.0412V52.8742H28.9315V51.7754H29.6425V49.998H31.0644V51.7754H32.2278V52.8742H31.0644V55.5565C31.0644 55.7504 31.1291 55.8796 31.226 55.9766C31.323 56.0735 31.4522 56.1058 31.6138 56.1058C31.7754 56.1058 31.9047 56.0735 32.0339 56.0412C32.1632 55.9766 32.2925 55.9443 32.3571 55.9119L32.6479 56.9784Z" fill="#556F7B"/>
<path d="M37.0107 57.3662C36.5583 57.3662 36.1705 57.3016 35.815 57.14C35.4595 56.9784 35.1687 56.7845 34.9101 56.526C34.6516 56.2674 34.4577 55.9766 34.3284 55.6211C34.1992 55.2656 34.1345 54.9101 34.1345 54.5223C34.1345 54.1345 34.1992 53.7467 34.3284 53.4236C34.4577 53.0681 34.6516 52.7772 34.9101 52.5187C35.1687 52.2602 35.4595 52.034 35.815 51.9047C36.1705 51.7431 36.5906 51.6785 37.043 51.6785C37.4955 51.6785 37.8833 51.7431 38.2387 51.9047C38.5942 52.0663 38.8851 52.2602 39.1436 52.5187C39.4021 52.7772 39.596 53.0681 39.7253 53.4236C39.8546 53.7791 39.9192 54.1345 39.9192 54.49C39.9192 54.587 39.9192 54.6839 39.9192 54.7486C39.9192 54.8455 39.9192 54.9101 39.8869 54.9748H35.6211C35.6534 55.201 35.6857 55.3949 35.7827 55.5565C35.8796 55.7181 35.9766 55.8796 36.1058 55.9766C36.2351 56.1059 36.3967 56.2028 36.5583 56.2351C36.7199 56.2998 36.9138 56.3321 37.0753 56.3321C37.3662 56.3321 37.6247 56.2674 37.8833 56.1382C38.1418 56.0089 38.3034 55.815 38.4003 55.5888L39.596 55.912C39.4021 56.3321 39.079 56.6876 38.6265 56.9461C38.1418 57.2369 37.6247 57.3662 37.0107 57.3662ZM38.4326 54.0376C38.4003 53.6175 38.2387 53.2943 37.9802 53.0358C37.7217 52.7772 37.3985 52.648 37.0107 52.648C36.8168 52.648 36.6552 52.6803 36.4936 52.7449C36.3321 52.8096 36.1705 52.9065 36.0735 53.0358C35.9443 53.165 35.8473 53.2943 35.7504 53.4559C35.6857 53.6175 35.6211 53.8114 35.6211 54.0053H38.4326V54.0376Z" fill="#556F7B"/>
<path d="M44.0234 57.3662C43.571 57.3662 43.1186 57.3015 42.6661 57.14C42.2137 56.9784 41.8582 56.7845 41.535 56.4936L42.0521 55.6211C42.3753 55.8473 42.7308 56.0412 43.0216 56.1705C43.3448 56.2997 43.6679 56.3644 43.9588 56.3644C44.2496 56.3644 44.4759 56.2997 44.6051 56.2028C44.7667 56.1058 44.8313 55.9442 44.8313 55.7503C44.8313 55.5564 44.7344 55.3949 44.5405 55.3302C44.3466 55.2333 44.0557 55.1363 43.6033 55.0071C43.2478 54.9101 42.957 54.8132 42.6984 54.7162C42.4399 54.6193 42.246 54.5223 42.0844 54.393C41.9228 54.2638 41.8259 54.1345 41.7613 54.0052C41.6966 53.8437 41.6643 53.6821 41.6643 53.4559C41.6643 53.165 41.7289 52.9388 41.8259 52.7126C41.9228 52.4864 42.0844 52.2925 42.2783 52.1309C42.4722 51.9693 42.6984 51.84 42.957 51.7754C43.2155 51.6784 43.5064 51.6461 43.8295 51.6461C44.2496 51.6461 44.6374 51.7107 44.9929 51.84C45.3484 51.9693 45.6716 52.1632 45.9947 52.4217L45.413 53.262C45.1222 53.0357 44.8637 52.9065 44.6051 52.8095C44.3466 52.7126 44.0881 52.6479 43.8295 52.6479C43.6033 52.6479 43.3771 52.7126 43.2155 52.8095C43.0539 52.9065 42.9893 53.0681 42.9893 53.2943C42.9893 53.3912 43.0216 53.4882 43.0539 53.5205C43.0862 53.5851 43.1509 53.6498 43.2478 53.6821C43.3448 53.7467 43.4417 53.779 43.571 53.8113C43.7003 53.8437 43.8618 53.9083 44.0881 53.9406C44.4759 54.0376 44.799 54.1345 45.0576 54.2315C45.3161 54.3284 45.5423 54.4577 45.7039 54.5546C45.8655 54.6839 45.9947 54.8132 46.0917 54.9747C46.1563 55.1363 46.221 55.3302 46.221 55.5564C46.221 56.1058 46.0271 56.5259 45.6069 56.8491C45.2515 57.2046 44.7344 57.3662 44.0234 57.3662Z" fill="#556F7B"/>
<path d="M51.6825 56.9784C51.4886 57.0753 51.2623 57.14 51.0038 57.2369C50.7453 57.3339 50.4544 57.3662 50.1313 57.3662C49.9374 57.3662 49.7435 57.3339 49.5819 57.3016C49.4203 57.2369 49.2587 57.1723 49.1294 57.0753C49.0002 56.9784 48.9032 56.8168 48.8063 56.6552C48.7416 56.4936 48.677 56.2674 48.677 56.0412V52.8742H47.966V51.7754H48.677V49.998H50.0989V51.7754H51.2623V52.8742H50.0989V55.5565C50.0989 55.7504 50.1636 55.8796 50.2605 55.9766C50.3575 56.0735 50.4867 56.1058 50.6483 56.1058C50.8099 56.1058 50.9392 56.0735 51.0684 56.0412C51.1977 55.9766 51.327 55.9443 51.3916 55.9119L51.6825 56.9784Z" fill="#556F7B"/>
<path d="M55.7221 57.3662C55.2697 57.3662 54.8172 57.3015 54.3648 57.14C53.9124 56.9784 53.5569 56.7845 53.2337 56.4936L53.7508 55.6211C54.0739 55.8473 54.4294 56.0412 54.7203 56.1705C55.0434 56.2997 55.3666 56.3644 55.6575 56.3644C55.9483 56.3644 56.1745 56.2997 56.3038 56.2028C56.4654 56.1058 56.53 55.9442 56.53 55.7503C56.53 55.5564 56.4331 55.3949 56.2392 55.3302C56.0453 55.2333 55.7544 55.1363 55.302 55.0071C54.9465 54.9101 54.6556 54.8132 54.3971 54.7162C54.1386 54.6193 53.9447 54.5223 53.7831 54.393C53.6215 54.2638 53.5246 54.1345 53.4599 54.0052C53.3953 53.8437 53.363 53.6821 53.363 53.4559C53.363 53.165 53.4276 52.9388 53.5246 52.7126C53.6215 52.4864 53.7831 52.2925 53.977 52.1309C54.1709 51.9693 54.3971 51.84 54.6556 51.7754C54.9142 51.6784 55.205 51.6461 55.5282 51.6461C55.9483 51.6461 56.3361 51.7107 56.6916 51.84C57.0471 51.9693 57.3702 52.1632 57.6934 52.4217L57.1117 53.262C56.8209 53.0357 56.5623 52.9065 56.3038 52.8095C56.0453 52.7126 55.7867 52.6479 55.5282 52.6479C55.302 52.6479 55.0758 52.7126 54.9142 52.8095C54.7526 52.9065 54.688 53.0681 54.688 53.2943C54.688 53.3912 54.7203 53.4882 54.7526 53.5205C54.7849 53.5851 54.8495 53.6498 54.9465 53.6821C55.0434 53.7467 55.1404 53.779 55.2697 53.8113C55.3989 53.8437 55.5605 53.9083 55.7867 53.9406C56.1745 54.0376 56.4977 54.1345 56.7562 54.2315C57.0148 54.3284 57.241 54.4577 57.4026 54.5546C57.5641 54.6839 57.6934 54.8132 57.7904 54.9747C57.855 55.1363 57.9196 55.3302 57.9196 55.5564C57.9196 56.1058 57.7257 56.5259 57.3056 56.8491C56.9501 57.2046 56.4007 57.3662 55.7221 57.3662Z" fill="#556F7B"/>
<path d="M66.3543 57.3662C65.9018 57.3662 65.514 57.3016 65.1586 57.14C64.8031 56.9784 64.5122 56.7845 64.2537 56.526C63.9952 56.2674 63.8013 55.9443 63.672 55.6211C63.5427 55.2656 63.4781 54.9101 63.4781 54.5223C63.4781 54.1345 63.5427 53.7791 63.672 53.4236C63.8013 53.0681 63.9952 52.7772 64.2537 52.5187C64.5122 52.2602 64.8031 52.034 65.1586 51.9047C65.514 51.7431 65.9342 51.6785 66.3543 51.6785C66.8067 51.6785 67.1945 51.7431 67.55 51.9047C67.9055 52.0663 68.1963 52.2602 68.4549 52.5187C68.7134 52.7772 68.9073 53.1004 69.0366 53.4236C69.1658 53.7791 69.2305 54.1345 69.2305 54.5223C69.2305 54.9101 69.1658 55.2656 69.0366 55.6211C68.9073 55.9766 68.7134 56.2674 68.4549 56.526C68.1963 56.7845 67.9055 57.0107 67.55 57.14C67.1945 57.2693 66.7744 57.3662 66.3543 57.3662ZM64.9 54.5223C64.9 54.7809 64.9323 54.9748 64.997 55.201C65.0616 55.3949 65.1586 55.5888 65.2878 55.7181C65.4171 55.8796 65.5787 55.9766 65.7403 56.0735C65.9018 56.1705 66.0957 56.2028 66.322 56.2028C66.5159 56.2028 66.7098 56.1705 66.9037 56.0735C67.0652 56.0089 67.2268 55.8796 67.3561 55.7181C67.4854 55.5565 67.5823 55.3949 67.6469 55.201C67.7116 55.0071 67.7439 54.7809 67.7439 54.5223C67.7439 54.2961 67.7116 54.0699 67.6469 53.876C67.5823 53.6821 67.4854 53.4882 67.3561 53.3589C67.2268 53.1974 67.0652 53.1004 66.9037 53.0035C66.7421 52.9388 66.5482 52.8742 66.322 52.8742C66.1281 52.8742 65.9342 52.9065 65.7403 53.0035C65.5787 53.1004 65.4171 53.1974 65.2878 53.3589C65.1586 53.5205 65.0616 53.6821 64.997 53.876C64.9323 54.0376 64.9 54.2638 64.9 54.5223Z" fill="#556F7B"/>
<path d="M76.5018 57.2369H75.0799V54.1345C75.0799 53.6821 75.0152 53.3589 74.8536 53.165C74.6921 52.9711 74.4982 52.8742 74.2073 52.8742C74.078 52.8742 73.9165 52.9065 73.7872 52.9711C73.6256 53.0358 73.4963 53.1004 73.3671 53.1974C73.2378 53.2943 73.1085 53.4236 73.0116 53.5528C72.9146 53.6821 72.8177 53.8437 72.7854 54.0053V57.2369H71.3634V51.7431H72.6238V52.7772C72.8177 52.4218 73.1085 52.1632 73.4963 51.9693C73.8841 51.7754 74.3043 51.6785 74.789 51.6785C75.1445 51.6785 75.403 51.7431 75.6292 51.8724C75.8555 52.0016 76.017 52.1632 76.1463 52.3571C76.2756 52.551 76.3402 52.7772 76.4048 53.0358C76.4372 53.2943 76.4695 53.5528 76.4695 53.8114V57.2369H76.5018Z" fill="#556F7B"/>
<path d="M85.9705 56.9784C85.7766 57.0753 85.5504 57.14 85.2919 57.2369C85.0333 57.3339 84.7425 57.3662 84.4193 57.3662C84.2254 57.3662 84.0315 57.3339 83.8699 57.3016C83.7083 57.2369 83.5468 57.1723 83.4175 57.0753C83.2882 56.9784 83.1913 56.8168 83.0943 56.6552C83.0297 56.4936 82.9651 56.2674 82.9651 56.0412V52.8742H82.2541V51.7754H82.9651V49.998H84.387V51.7754H85.5504V52.8742H84.387V55.5565C84.387 55.7504 84.4516 55.8796 84.5486 55.9766C84.6455 56.0735 84.7748 56.1058 84.9364 56.1058C85.098 56.1058 85.2272 56.0735 85.3565 56.0412C85.4858 55.9766 85.615 55.9443 85.6797 55.9119L85.9705 56.9784Z" fill="#556F7B"/>
<path d="M93.0478 57.237H91.6259V54.1346C91.6259 53.7144 91.529 53.3913 91.3997 53.1651C91.2381 52.9712 91.0119 52.8419 90.721 52.8419C90.5918 52.8419 90.4625 52.8742 90.3332 52.9388C90.204 53.0035 90.0747 53.0681 89.9454 53.1651C89.8162 53.262 89.7192 53.3913 89.59 53.5205C89.493 53.6498 89.3961 53.8114 89.3637 53.973V57.2046H87.9095V49.9011H89.3314V52.7126C89.5253 52.3571 89.8162 52.0663 90.1717 51.8724C90.5271 51.6785 90.9149 51.5815 91.3351 51.5815C91.6905 51.5815 91.9814 51.6462 92.2076 51.7754C92.4338 51.9047 92.5954 52.0663 92.7247 52.2602C92.8539 52.4541 92.9509 52.6803 92.9832 52.9388C93.0478 53.1974 93.0478 53.4559 93.0478 53.7468V57.237Z" fill="#556F7B"/>
<path d="M98.0247 57.3662C97.5722 57.3662 97.1844 57.3016 96.8289 57.14C96.4735 56.9784 96.1826 56.7845 95.9241 56.526C95.6655 56.2674 95.4716 55.9766 95.3424 55.6211C95.2131 55.2656 95.1485 54.9101 95.1485 54.5223C95.1485 54.1345 95.2131 53.7467 95.3424 53.4236C95.4716 53.0681 95.6655 52.7772 95.9241 52.5187C96.1826 52.2602 96.4735 52.034 96.8289 51.9047C97.1844 51.7431 97.6045 51.6785 98.057 51.6785C98.5094 51.6785 98.8972 51.7431 99.2527 51.9047C99.6082 52.0663 99.899 52.2602 100.158 52.5187C100.416 52.7772 100.61 53.0681 100.739 53.4236C100.869 53.7791 100.933 54.1345 100.933 54.49C100.933 54.587 100.933 54.6839 100.933 54.7486C100.933 54.8455 100.933 54.9101 100.901 54.9748H96.635C96.6674 55.201 96.6997 55.3949 96.7966 55.5565C96.8936 55.7181 96.9905 55.8796 97.1198 55.9766C97.2491 56.1059 97.4106 56.2028 97.5722 56.2351C97.7338 56.2998 97.9277 56.3321 98.0893 56.3321C98.3801 56.3321 98.6387 56.2674 98.8972 56.1382C99.1557 56.0089 99.3173 55.815 99.4143 55.5888L100.61 55.912C100.416 56.3321 100.093 56.6876 99.6405 56.9461C99.1881 57.2369 98.6387 57.3662 98.0247 57.3662ZM99.4466 54.0376C99.4143 53.6175 99.2527 53.2943 98.9942 53.0358C98.7356 52.7772 98.4125 52.648 98.0247 52.648C97.8308 52.648 97.6692 52.6803 97.5076 52.7449C97.346 52.8096 97.1844 52.9065 97.0875 53.0358C96.9582 53.165 96.8613 53.2943 96.7643 53.4559C96.6674 53.6175 96.635 53.8114 96.635 54.0053H99.4466V54.0376Z" fill="#556F7B"/>
<path d="M108.883 57.2692C108.528 57.2692 108.172 57.2046 107.881 57.043C107.59 56.8814 107.332 56.6875 107.106 56.429C106.879 56.1705 106.718 55.8796 106.589 55.5564C106.459 55.2333 106.395 54.8778 106.395 54.49C106.395 54.1022 106.459 53.7144 106.589 53.3912C106.718 53.0357 106.879 52.7449 107.106 52.4863C107.332 52.2278 107.59 52.0339 107.914 51.8723C108.237 51.7108 108.56 51.6461 108.948 51.6461C109.368 51.6461 109.756 51.7431 110.079 51.937C110.402 52.1309 110.66 52.3894 110.887 52.7126V51.7431H112.115V56.9784C112.115 57.3985 112.05 57.754 111.888 58.0771C111.727 58.4003 111.533 58.6588 111.242 58.8851C110.984 59.1113 110.66 59.2729 110.273 59.4021C109.885 59.5314 109.497 59.596 109.045 59.596C108.431 59.596 107.946 59.4991 107.526 59.3052C107.106 59.1113 106.75 58.8204 106.459 58.4649L107.235 57.7217C107.461 57.9802 107.72 58.1741 108.043 58.3357C108.366 58.4973 108.689 58.5619 109.045 58.5619C109.271 58.5619 109.465 58.5296 109.659 58.4649C109.853 58.4003 110.046 58.3034 110.176 58.1741C110.337 58.0448 110.467 57.8832 110.531 57.6893C110.628 57.4954 110.66 57.2692 110.66 57.0107V56.332C110.467 56.6552 110.208 56.8814 109.885 57.0753C109.594 57.2046 109.238 57.2692 108.883 57.2692ZM109.335 56.1705C109.497 56.1705 109.626 56.1381 109.788 56.1058C109.917 56.0412 110.046 55.9766 110.176 55.9119C110.305 55.815 110.402 55.718 110.499 55.6211C110.596 55.5241 110.66 55.3949 110.725 55.2656V53.9406C110.596 53.6174 110.402 53.3589 110.143 53.165C109.885 52.9711 109.594 52.8742 109.303 52.8742C109.077 52.8742 108.883 52.9065 108.721 53.0034C108.56 53.1004 108.398 53.2296 108.269 53.3912C108.14 53.5528 108.043 53.7144 107.978 53.9406C107.914 54.1345 107.881 54.3607 107.881 54.5869C107.881 54.8132 107.914 55.0071 108.01 55.2333C108.075 55.4272 108.204 55.5888 108.334 55.7503C108.463 55.9119 108.624 56.0089 108.818 56.1058C108.915 56.1058 109.109 56.1705 109.335 56.1705Z" fill="#556F7B"/>
<path d="M117.124 57.3662C116.671 57.3662 116.284 57.3016 115.928 57.14C115.573 56.9784 115.282 56.7845 115.023 56.526C114.765 56.2674 114.571 55.9443 114.442 55.6211C114.312 55.2656 114.248 54.9101 114.248 54.5223C114.248 54.1345 114.312 53.7791 114.442 53.4236C114.571 53.0681 114.765 52.7772 115.023 52.5187C115.282 52.2602 115.573 52.034 115.928 51.9047C116.284 51.7431 116.704 51.6785 117.124 51.6785C117.576 51.6785 117.964 51.7431 118.32 51.9047C118.675 52.0663 118.966 52.2602 119.224 52.5187C119.483 52.7772 119.677 53.1004 119.806 53.4236C119.935 53.7791 120 54.1345 120 54.5223C120 54.9101 119.935 55.2656 119.806 55.6211C119.677 55.9766 119.483 56.2674 119.224 56.526C118.966 56.7845 118.675 57.0107 118.32 57.14C117.996 57.2693 117.576 57.3662 117.124 57.3662ZM115.702 54.5223C115.702 54.7809 115.734 54.9748 115.799 55.201C115.863 55.3949 115.96 55.5888 116.09 55.7181C116.219 55.8796 116.381 55.9766 116.542 56.0735C116.704 56.1705 116.898 56.2028 117.124 56.2028C117.318 56.2028 117.512 56.1705 117.706 56.0735C117.867 56.0089 118.029 55.8796 118.158 55.7181C118.287 55.5565 118.384 55.3949 118.449 55.201C118.513 55.0071 118.546 54.7809 118.546 54.5223C118.546 54.2961 118.513 54.0699 118.449 53.876C118.384 53.6821 118.287 53.4882 118.158 53.3589C118.029 53.1974 117.867 53.1004 117.706 53.0035C117.544 52.9388 117.35 52.8742 117.124 52.8742C116.93 52.8742 116.736 52.9065 116.542 53.0035C116.381 53.1004 116.219 53.1974 116.09 53.3589C115.96 53.5205 115.863 53.6821 115.799 53.876C115.734 54.0376 115.702 54.2638 115.702 54.5223Z" fill="#556F7B"/>
</svg>
